<svg xmlns="http://www.w3.org/2000/svg" version="1.1" xmlns:xlink="http://www.w3.org/1999/xlink" xmlns:svgjs="http://svgjs.com/svgjs" width="1416" height="560" preserveAspectRatio="none" viewBox="0 0 1416 560"><g mask="url(&quot;#SvgjsMask1052&quot;)" fill="none"><rect width="1416" height="560" x="0" y="0" fill="rgba(46, 0, 34, 1)"></rect><path d="M1315.44 71.61a7.9 7.9 0 1 0-12.83-9.22z" fill="rgba(244, 102, 250, 1)"></path><path d="M1082.24 37.49L1107.3 37.49L1107.3 62.55L1082.24 62.55z" stroke="rgba(244, 102, 250, 1)"></path><path d="M1165.6 427.8 a6.16 6.16 0 1 0 12.32 0 a6.16 6.16 0 1 0 -12.32 0z" stroke="rgba(158, 5, 133, 1)"></path><path d="M133.25 202.8 a15.64 15.64 0 1 0 31.28 0 a15.64 15.64 0 1 0 -31.28 0z" stroke="rgba(156, 99, 175, 1)"></path><path d="M776.78 461.15a6.85 6.85 0 1 0-13.67 0.91z" fill="rgba(156, 99, 175, 1)"></path><path d="M917.63 365.66a3.37 3.37 0 1 0 6.42-2.06z" fill="rgba(244, 102, 250, 1)"></path><path d="M307.85 98.05L315.04 98.05L315.04 135.98L307.85 135.98z" stroke="rgba(244, 102, 250, 1)"></path><path d="M92.47 20.98L127.43 20.98L127.43 55.94L92.47 55.94z" stroke="rgba(244, 102, 250, 1)"></path><path d="M198.07 215.57L207.82 215.57L207.82 225.32L198.07 225.32z" stroke="rgba(244, 102, 250, 1)"></path><path d="M1106.91 428.47a55.45 55.45 0 1 0 74.32-82.31z" stroke="rgba(156, 99, 175, 1)"></path><path d="M889.77 250.37a4.53 4.53 0 1 0 8.28 3.68z" fill="rgba(244, 102, 250, 1)"></path><path d="M1347.32 137.55a12 12 0 1 0 4.83 23.51z" fill="rgba(156, 99, 175, 1)"></path><path d="M434.9 95.2a2.27 2.27 0 1 0-4.14 1.87z" fill="rgba(156, 99, 175, 1)"></path><path d="M334.19 397.91 a36.32 36.32 0 1 0 72.64 0 a36.32 36.32 0 1 0 -72.64 0z" fill="rgba(156, 99, 175, 1)"></path><path d="M112.44 33.91L134.55 33.91L134.55 52.2L112.44 52.2z" stroke="rgba(158, 5, 133, 1)"></path><path d="M685.95 255.81L740.67 255.81L740.67 273.24L685.95 273.24z" stroke="rgba(244, 102, 250, 1)"></path><path d="M743.06 124.05a53.19 53.19 0 1 0-95.49 46.87z" stroke="rgba(156, 99, 175, 1)"></path><path d="M56.99 216.34L73.97 216.34L73.97 216.68L56.99 216.68z" stroke="rgba(158, 5, 133, 1)"></path><path d="M500.5 83.59L532.5 83.59L532.5 115.59L500.5 115.59z" fill="rgba(156, 99, 175, 1)"></path><path d="M634.26 435.04a19.97 19.97 0 1 0-28.71-27.77z" fill="rgba(158, 5, 133, 1)"></path><path d="M1393.33 382.08L1419.12 382.08L1419.12 427.38L1393.33 427.38z" fill="rgba(156, 99, 175, 1)"></path><path d="M20.43 79.24L26.59 79.24L26.59 85.4L20.43 85.4z" fill="rgba(244, 102, 250, 1)"></path><path d="M615.2 175.32L625.97 175.32L625.97 211.96L615.2 211.96z" stroke="rgba(156, 99, 175, 1)"></path><path d="M39.43 382.86L44.96 382.86L44.96 388.39L39.43 388.39z" stroke="rgba(158, 5, 133, 1)"></path><path d="M1138.37 177.53L1184.04 177.53L1184.04 199.43L1138.37 199.43z" stroke="rgba(158, 5, 133, 1)"></path><path d="M1066.76 469.3L1109.2 469.3L1109.2 511.74L1066.76 511.74z" stroke="rgba(156, 99, 175, 1)"></path><path d="M141.39 509.09a50.74 50.74 0 1 0-55.08-85.24z" stroke="rgba(244, 102, 250, 1)"></path><path d="M366.72 238.94L383 238.94L383 255.22L366.72 255.22z" stroke="rgba(158, 5, 133, 1)"></path><path d="M1290.24 72.41 a42.54 42.54 0 1 0 85.08 0 a42.54 42.54 0 1 0 -85.08 0z" stroke="rgba(156, 99, 175, 1)"></path><path d="M82.68 296.11a7.98 7.98 0 1 0-15.91-1.32z" stroke="rgba(156, 99, 175, 1)"></path><path d="M774.31 345.08 a9.81 9.81 0 1 0 19.62 0 a9.81 9.81 0 1 0 -19.62 0z" stroke="rgba(244, 102, 250, 1)"></path><path d="M1160.39 404.06L1175.55 404.06L1175.55 420.86L1160.39 420.86z" fill="rgba(158, 5, 133, 1)"></path></g><defs><mask id="SvgjsMask1052"><rect width="1416" height="560" fill="#ffffff"></rect></mask></defs></svg>