<svg xmlns="http://www.w3.org/2000/svg" version="1.1" xmlns:xlink="http://www.w3.org/1999/xlink" xmlns:svgjs="http://svgjs.com/svgjs" width="1416" height="560" preserveAspectRatio="none" viewBox="0 0 1416 560"><g mask="url(&quot;#SvgjsMask1042&quot;)" fill="none"><rect width="1416" height="560" x="0" y="0" fill="rgba(46, 0, 34, 1)"></rect><path d="M769.55 177.15L805.02 177.15L805.02 212.62L769.55 212.62z" fill="rgba(244, 102, 250, 1)"></path><path d="M92.51 35.21a46.62 46.62 0 1 0 89.42-26.43z" stroke="rgba(156, 99, 175, 1)"></path><path d="M169.6 366.16 a1.69 1.69 0 1 0 3.38 0 a1.69 1.69 0 1 0 -3.38 0z" fill="rgba(156, 99, 175, 1)"></path><path d="M-25.86 103.94 a55.85 55.85 0 1 0 111.7 0 a55.85 55.85 0 1 0 -111.7 0z" stroke="rgba(244, 102, 250, 1)"></path><path d="M110.57 132.68a47.37 47.37 0 1 0 40.24 85.77z" fill="rgba(158, 5, 133, 1)"></path><path d="M1174.09 488.4L1220.86 488.4L1220.86 494.17L1174.09 494.17z" fill="rgba(156, 99, 175, 1)"></path><path d="M1054.31 147.17L1097.07 147.17L1097.07 189.93L1054.31 189.93z" fill="rgba(244, 102, 250, 1)"></path><path d="M579.13 175.17a55.93 55.93 0 1 0 111.42 9.84z" fill="rgba(158, 5, 133, 1)"></path><path d="M1194.39 295.72L1194.55 295.72L1194.55 345.96L1194.39 345.96z" fill="rgba(156, 99, 175, 1)"></path><path d="M130.26 114.16L170.59 114.16L170.59 163.8L130.26 163.8z" fill="rgba(156, 99, 175, 1)"></path><path d="M1005.29 89.58a29.78 29.78 0 1 0 58.66-10.3z" fill="rgba(244, 102, 250, 1)"></path><path d="M865 505.26L909.96 505.26L909.96 550.22L865 550.22z" fill="rgba(158, 5, 133, 1)"></path><path d="M1195.4 96.79L1211.14 96.79L1211.14 143.52L1195.4 143.52z" fill="rgba(158, 5, 133, 1)"></path><path d="M1218.36 337.03L1234.66 337.03L1234.66 353.33L1218.36 353.33z" fill="rgba(158, 5, 133, 1)"></path><path d="M500.04 365.12a37.99 37.99 0 1 0-62.55 43.13z" stroke="rgba(244, 102, 250, 1)"></path><path d="M1400.52 277.57L1439.62 277.57L1439.62 307.48L1400.52 307.48z" fill="rgba(156, 99, 175, 1)"></path><path d="M488.56 44.09L524.78 44.09L524.78 60.32L488.56 60.32z" stroke="rgba(244, 102, 250, 1)"></path><path d="M1000.49 384.49a5.97 5.97 0 1 0 11.66-2.58z" fill="rgba(244, 102, 250, 1)"></path><path d="M1159.22 373.82a25.04 25.04 0 1 0-30.95 39.38z" stroke="rgba(156, 99, 175, 1)"></path><path d="M708.61 98.64L737.38 98.64L737.38 122.28L708.61 122.28z" stroke="rgba(158, 5, 133, 1)"></path><path d="M1339.99 192.63L1352.7 192.63L1352.7 237.69L1339.99 237.69z" fill="rgba(244, 102, 250, 1)"></path><path d="M714.61 156.7 a1.48 1.48 0 1 0 2.96 0 a1.48 1.48 0 1 0 -2.96 0z" fill="rgba(158, 5, 133, 1)"></path><path d="M706.79 528.71a27.71 27.71 0 1 0-26.29-48.79z" stroke="rgba(244, 102, 250, 1)"></path><path d="M281.69 57.37L315.09 57.37L315.09 90.77L281.69 90.77z" stroke="rgba(156, 99, 175, 1)"></path><path d="M57.02 476.87L104.98 476.87L104.98 508.34L57.02 508.34z" fill="rgba(156, 99, 175, 1)"></path><path d="M629.03 556.43 a23.82 23.82 0 1 0 47.64 0 a23.82 23.82 0 1 0 -47.64 0z" fill="rgba(156, 99, 175, 1)"></path><path d="M529.62 503.89 a7.97 7.97 0 1 0 15.94 0 a7.97 7.97 0 1 0 -15.94 0z" fill="rgba(244, 102, 250, 1)"></path><path d="M1402.94 43.38a49.08 49.08 0 1 0-20.57 95.98z" stroke="rgba(244, 102, 250, 1)"></path><path d="M1070.25 125.72L1071.3 125.72L1071.3 139.68L1070.25 139.68z" stroke="rgba(158, 5, 133, 1)"></path><path d="M1101.3 189.06 a19.44 19.44 0 1 0 38.88 0 a19.44 19.44 0 1 0 -38.88 0z" stroke="rgba(244, 102, 250, 1)"></path><path d="M20.71 402.13 a5.33 5.33 0 1 0 10.66 0 a5.33 5.33 0 1 0 -10.66 0z" fill="rgba(244, 102, 250, 1)"></path><path d="M1147.57 530.95 a11.66 11.66 0 1 0 23.32 0 a11.66 11.66 0 1 0 -23.32 0z" stroke="rgba(156, 99, 175, 1)"></path></g><defs><mask id="SvgjsMask1042"><rect width="1416" height="560" fill="#ffffff"></rect></mask></defs></svg>